<mxfile host="app.diagrams.net" modified="2023-10-11T22:50:35.861Z" agent="Mozilla/5.0 (X11; Ubuntu; Linux x86_64; rv:109.0) Gecko/20100101 Firefox/118.0" etag="QnRoCcqV8YE13QiMIB8Z" version="22.0.2" type="device">
  <diagram name="Page-1" id="XkMK7qnfpgR8Dx2taiUe">
    <mxGraphModel dx="880" dy="1586" grid="1" gridSize="10" guides="1" tooltips="1" connect="1" arrows="1" fold="1" page="1" pageScale="1" pageWidth="850" pageHeight="1100" math="0" shadow="0">
      <root>
        <mxCell id="0" />
        <mxCell id="1" parent="0" />
        <mxCell id="S38tUoGuxRmwmICruJuk-1" value="Banco" style="swimlane;fontStyle=1;align=center;verticalAlign=top;childLayout=stackLayout;horizontal=1;startSize=26;horizontalStack=0;resizeParent=1;resizeParentMax=0;resizeLast=0;collapsible=1;marginBottom=0;whiteSpace=wrap;html=1;" parent="1" vertex="1">
          <mxGeometry x="340" y="180" width="290" height="230" as="geometry" />
        </mxCell>
        <mxCell id="S38tUoGuxRmwmICruJuk-2" value="&lt;div&gt;- solicitables: List&amp;lt;Solicitable&amp;gt;&lt;/div&gt;&lt;div&gt;- clientes: List&amp;lt;Cliente&amp;gt;&lt;br&gt;&lt;/div&gt;&lt;div&gt;&lt;br&gt;&lt;/div&gt;&lt;div&gt;- nombre: String&lt;/div&gt;&lt;div&gt;- direccion: String &lt;br&gt;&lt;/div&gt;&lt;div&gt;- montoTotalADesembolsar: double&lt;br&gt;&lt;/div&gt;" style="text;strokeColor=none;fillColor=none;align=left;verticalAlign=top;spacingLeft=4;spacingRight=4;overflow=hidden;rotatable=0;points=[[0,0.5],[1,0.5]];portConstraint=eastwest;whiteSpace=wrap;html=1;" parent="S38tUoGuxRmwmICruJuk-1" vertex="1">
          <mxGeometry y="26" width="290" height="94" as="geometry" />
        </mxCell>
        <mxCell id="S38tUoGuxRmwmICruJuk-3" value="" style="line;strokeWidth=1;fillColor=none;align=left;verticalAlign=middle;spacingTop=-1;spacingLeft=3;spacingRight=3;rotatable=0;labelPosition=right;points=[];portConstraint=eastwest;strokeColor=inherit;" parent="S38tUoGuxRmwmICruJuk-1" vertex="1">
          <mxGeometry y="120" width="290" height="8" as="geometry" />
        </mxCell>
        <mxCell id="S38tUoGuxRmwmICruJuk-4" value="&lt;div&gt;- new (nombre, direccion)&lt;/div&gt;&lt;div&gt;+ get clientes&lt;/div&gt;&lt;div&gt;+ get solicitables &lt;br&gt;&lt;/div&gt;" style="text;strokeColor=none;fillColor=none;align=left;verticalAlign=top;spacingLeft=4;spacingRight=4;overflow=hidden;rotatable=0;points=[[0,0.5],[1,0.5]];portConstraint=eastwest;whiteSpace=wrap;html=1;" parent="S38tUoGuxRmwmICruJuk-1" vertex="1">
          <mxGeometry y="128" width="290" height="102" as="geometry" />
        </mxCell>
        <mxCell id="S38tUoGuxRmwmICruJuk-5" value="Cliente " style="swimlane;fontStyle=1;align=center;verticalAlign=top;childLayout=stackLayout;horizontal=1;startSize=26;horizontalStack=0;resizeParent=1;resizeParentMax=0;resizeLast=0;collapsible=1;marginBottom=0;whiteSpace=wrap;html=1;" parent="1" vertex="1">
          <mxGeometry x="730" y="180" width="250" height="220" as="geometry" />
        </mxCell>
        <mxCell id="S38tUoGuxRmwmICruJuk-6" value="&lt;div&gt;- nombre: String&lt;/div&gt;&lt;div&gt;- apellido: String&lt;/div&gt;&lt;div&gt;- direccion: String&lt;br&gt;&lt;/div&gt;&lt;div&gt;- edad: int&lt;/div&gt;&lt;div&gt;- sueldoNetoMensual: double&lt;/div&gt;&lt;div&gt;- sueldoNetoAnual: double&lt;/div&gt;&lt;div&gt;- montoASolicitar: double&lt;br&gt;&lt;/div&gt;&lt;div&gt;&amp;nbsp;&lt;/div&gt;" style="text;strokeColor=none;fillColor=none;align=left;verticalAlign=top;spacingLeft=4;spacingRight=4;overflow=hidden;rotatable=0;points=[[0,0.5],[1,0.5]];portConstraint=eastwest;whiteSpace=wrap;html=1;" parent="S38tUoGuxRmwmICruJuk-5" vertex="1">
          <mxGeometry y="26" width="250" height="104" as="geometry" />
        </mxCell>
        <mxCell id="S38tUoGuxRmwmICruJuk-7" value="" style="line;strokeWidth=1;fillColor=none;align=left;verticalAlign=middle;spacingTop=-1;spacingLeft=3;spacingRight=3;rotatable=0;labelPosition=right;points=[];portConstraint=eastwest;strokeColor=inherit;" parent="S38tUoGuxRmwmICruJuk-5" vertex="1">
          <mxGeometry y="130" width="250" height="8" as="geometry" />
        </mxCell>
        <mxCell id="S38tUoGuxRmwmICruJuk-8" value="&lt;div&gt;- new (nombre, apellido, direccion edad, &lt;br&gt;sueldoNetoMensual)&lt;/div&gt;&lt;div&gt;+ calcularSueldoNetoAnual(): double&lt;/div&gt;&lt;div&gt;+ sueldoNetoMensual(): double&lt;/div&gt;&lt;div&gt;+ montoASolicitar(): double&lt;br&gt;&lt;/div&gt;&lt;div&gt;&lt;br&gt;&lt;/div&gt;" style="text;strokeColor=none;fillColor=none;align=left;verticalAlign=top;spacingLeft=4;spacingRight=4;overflow=hidden;rotatable=0;points=[[0,0.5],[1,0.5]];portConstraint=eastwest;whiteSpace=wrap;html=1;" parent="S38tUoGuxRmwmICruJuk-5" vertex="1">
          <mxGeometry y="138" width="250" height="82" as="geometry" />
        </mxCell>
        <mxCell id="S38tUoGuxRmwmICruJuk-11" value="&lt;font style=&quot;font-size: 15px;&quot;&gt;clientes&lt;/font&gt;" style="endArrow=block;endFill=1;html=1;edgeStyle=orthogonalEdgeStyle;align=left;verticalAlign=top;rounded=0;entryX=0;entryY=0.5;entryDx=0;entryDy=0;" parent="1" target="S38tUoGuxRmwmICruJuk-6" edge="1">
          <mxGeometry x="0.1919" y="-27" relative="1" as="geometry">
            <mxPoint x="630" y="250" as="sourcePoint" />
            <mxPoint x="790" y="250" as="targetPoint" />
            <mxPoint x="-20" y="-10" as="offset" />
          </mxGeometry>
        </mxCell>
        <mxCell id="S38tUoGuxRmwmICruJuk-12" value="1" style="edgeLabel;resizable=0;html=1;align=left;verticalAlign=bottom;" parent="S38tUoGuxRmwmICruJuk-11" connectable="0" vertex="1">
          <mxGeometry x="-1" relative="1" as="geometry" />
        </mxCell>
        <mxCell id="S38tUoGuxRmwmICruJuk-13" value="&lt;font style=&quot;font-size: 21px;&quot;&gt;*&lt;/font&gt;" style="text;html=1;align=center;verticalAlign=middle;resizable=0;points=[];autosize=1;strokeColor=none;fillColor=none;" parent="1" vertex="1">
          <mxGeometry x="695" y="223" width="30" height="40" as="geometry" />
        </mxCell>
        <mxCell id="S38tUoGuxRmwmICruJuk-18" value="«interface»&lt;br&gt;&lt;div&gt;&lt;b&gt;Solicitable&lt;/b&gt;&lt;/div&gt;&lt;div&gt;&lt;b&gt;+ otorgarCredito(): double&lt;br&gt;&lt;/b&gt;&lt;/div&gt;" style="html=1;whiteSpace=wrap;" parent="1" vertex="1">
          <mxGeometry x="60" y="10" width="150" height="80" as="geometry" />
        </mxCell>
        <mxCell id="S38tUoGuxRmwmICruJuk-20" value="&lt;font style=&quot;font-size: 15px;&quot;&gt;solicitables&lt;/font&gt;" style="endArrow=block;endFill=1;html=1;edgeStyle=orthogonalEdgeStyle;align=left;verticalAlign=top;rounded=0;exitX=-0.014;exitY=0.048;exitDx=0;exitDy=0;exitPerimeter=0;entryX=0.5;entryY=1;entryDx=0;entryDy=0;" parent="1" source="S38tUoGuxRmwmICruJuk-4" target="S38tUoGuxRmwmICruJuk-18" edge="1">
          <mxGeometry x="0.294" y="19" relative="1" as="geometry">
            <mxPoint x="290" y="330" as="sourcePoint" />
            <mxPoint x="130" y="330" as="targetPoint" />
            <mxPoint as="offset" />
          </mxGeometry>
        </mxCell>
        <mxCell id="S38tUoGuxRmwmICruJuk-21" value="1" style="edgeLabel;resizable=0;html=1;align=left;verticalAlign=bottom;" parent="S38tUoGuxRmwmICruJuk-20" connectable="0" vertex="1">
          <mxGeometry x="-1" relative="1" as="geometry">
            <mxPoint x="-16" y="-7" as="offset" />
          </mxGeometry>
        </mxCell>
        <mxCell id="S38tUoGuxRmwmICruJuk-22" value="&lt;div&gt;&amp;lt;&amp;lt;Abstract&amp;gt;&amp;gt;&lt;/div&gt;&lt;div&gt;SolicitudDeCredito&lt;br&gt;&lt;/div&gt;" style="swimlane;fontStyle=1;align=center;verticalAlign=top;childLayout=stackLayout;horizontal=1;startSize=36;horizontalStack=0;resizeParent=1;resizeParentMax=0;resizeLast=0;collapsible=1;marginBottom=0;whiteSpace=wrap;html=1;" parent="1" vertex="1">
          <mxGeometry x="340" y="-76" width="220" height="220" as="geometry" />
        </mxCell>
        <mxCell id="S38tUoGuxRmwmICruJuk-23" value="&lt;div&gt;- clienteSolicitante: Cliente&lt;/div&gt;&lt;div&gt;- duracion: int&lt;br&gt;&lt;/div&gt;&lt;div&gt;- montoCuotaMensual: double &lt;br&gt;&lt;/div&gt;&lt;div&gt;- esAceptable: boolean &amp;lt;&amp;lt;Abstract&amp;gt;&amp;gt;&lt;/div&gt;&lt;div&gt;&lt;br&gt;&lt;/div&gt;" style="text;strokeColor=none;fillColor=none;align=left;verticalAlign=top;spacingLeft=4;spacingRight=4;overflow=hidden;rotatable=0;points=[[0,0.5],[1,0.5]];portConstraint=eastwest;whiteSpace=wrap;html=1;" parent="S38tUoGuxRmwmICruJuk-22" vertex="1">
          <mxGeometry y="36" width="220" height="104" as="geometry" />
        </mxCell>
        <mxCell id="S38tUoGuxRmwmICruJuk-24" value="" style="line;strokeWidth=1;fillColor=none;align=left;verticalAlign=middle;spacingTop=-1;spacingLeft=3;spacingRight=3;rotatable=0;labelPosition=right;points=[];portConstraint=eastwest;strokeColor=inherit;" parent="S38tUoGuxRmwmICruJuk-22" vertex="1">
          <mxGeometry y="140" width="220" height="8" as="geometry" />
        </mxCell>
        <mxCell id="S38tUoGuxRmwmICruJuk-25" value="&lt;div&gt;+ new (clienteSolicitante, duracion)&lt;br&gt;&lt;/div&gt;&lt;div&gt;+ clienteSolicitante(): Cliente&lt;/div&gt;&lt;div&gt;+ duracion(): int&lt;/div&gt;&lt;div&gt;+ montoCuotaMensual(): double&lt;br&gt;&lt;/div&gt;" style="text;strokeColor=none;fillColor=none;align=left;verticalAlign=top;spacingLeft=4;spacingRight=4;overflow=hidden;rotatable=0;points=[[0,0.5],[1,0.5]];portConstraint=eastwest;whiteSpace=wrap;html=1;" parent="S38tUoGuxRmwmICruJuk-22" vertex="1">
          <mxGeometry y="148" width="220" height="72" as="geometry" />
        </mxCell>
        <mxCell id="S38tUoGuxRmwmICruJuk-26" value="" style="endArrow=block;dashed=1;endFill=0;endSize=12;html=1;rounded=0;exitX=-0.005;exitY=0.01;exitDx=0;exitDy=0;exitPerimeter=0;" parent="1" source="S38tUoGuxRmwmICruJuk-23" edge="1">
          <mxGeometry width="160" relative="1" as="geometry">
            <mxPoint x="270" y="-40" as="sourcePoint" />
            <mxPoint x="121" y="12" as="targetPoint" />
            <Array as="points">
              <mxPoint x="121" y="-40" />
            </Array>
          </mxGeometry>
        </mxCell>
        <mxCell id="EbIOYfQuQLUnMpSOqg3n-1" value="Extends" style="endArrow=block;endSize=16;endFill=0;html=1;rounded=0;entryX=0.995;entryY=0.048;entryDx=0;entryDy=0;entryPerimeter=0;" parent="1" target="S38tUoGuxRmwmICruJuk-23" edge="1">
          <mxGeometry width="160" relative="1" as="geometry">
            <mxPoint x="630" y="-40" as="sourcePoint" />
            <mxPoint x="570" y="-40" as="targetPoint" />
          </mxGeometry>
        </mxCell>
        <mxCell id="EbIOYfQuQLUnMpSOqg3n-2" value="SolicitudCreditoHipotecario" style="swimlane;fontStyle=1;align=center;verticalAlign=top;childLayout=stackLayout;horizontal=1;startSize=26;horizontalStack=0;resizeParent=1;resizeParentMax=0;resizeLast=0;collapsible=1;marginBottom=0;whiteSpace=wrap;html=1;" parent="1" vertex="1">
          <mxGeometry x="1020" y="20" width="180" height="220" as="geometry" />
        </mxCell>
        <mxCell id="EbIOYfQuQLUnMpSOqg3n-3" value="&lt;div&gt;- propiedadEnGarantia: String&lt;/div&gt;&lt;div&gt;- descripcionPropiedad: String&lt;br&gt;&lt;/div&gt;&lt;div&gt;- valorFiscalPropiedad: double&lt;br&gt;&lt;/div&gt;" style="text;strokeColor=none;fillColor=none;align=left;verticalAlign=top;spacingLeft=4;spacingRight=4;overflow=hidden;rotatable=0;points=[[0,0.5],[1,0.5]];portConstraint=eastwest;whiteSpace=wrap;html=1;" parent="EbIOYfQuQLUnMpSOqg3n-2" vertex="1">
          <mxGeometry y="26" width="180" height="64" as="geometry" />
        </mxCell>
        <mxCell id="EbIOYfQuQLUnMpSOqg3n-4" value="" style="line;strokeWidth=1;fillColor=none;align=left;verticalAlign=middle;spacingTop=-1;spacingLeft=3;spacingRight=3;rotatable=0;labelPosition=right;points=[];portConstraint=eastwest;strokeColor=inherit;" parent="EbIOYfQuQLUnMpSOqg3n-2" vertex="1">
          <mxGeometry y="90" width="180" height="8" as="geometry" />
        </mxCell>
        <mxCell id="EbIOYfQuQLUnMpSOqg3n-5" value="&lt;div&gt;+ new (clienteSolicitante, duracion, propiedadEnGarantia, descripcionPropiedad, valorFiscalPropiedad)&lt;/div&gt;&lt;div&gt;&lt;br&gt;&lt;/div&gt;&lt;div&gt;+ otorgarCredito(): double&lt;br&gt;&lt;/div&gt;&lt;div&gt;+ esAceptable(): boolean&lt;br&gt;&lt;/div&gt;" style="text;strokeColor=none;fillColor=none;align=left;verticalAlign=top;spacingLeft=4;spacingRight=4;overflow=hidden;rotatable=0;points=[[0,0.5],[1,0.5]];portConstraint=eastwest;whiteSpace=wrap;html=1;" parent="EbIOYfQuQLUnMpSOqg3n-2" vertex="1">
          <mxGeometry y="98" width="180" height="122" as="geometry" />
        </mxCell>
        <mxCell id="EbIOYfQuQLUnMpSOqg3n-6" value="Extends" style="endArrow=block;endSize=16;endFill=0;html=1;rounded=0;entryX=1;entryY=0.5;entryDx=0;entryDy=0;" parent="1" target="S38tUoGuxRmwmICruJuk-25" edge="1">
          <mxGeometry x="-0.1015" y="13" width="160" relative="1" as="geometry">
            <mxPoint x="1020" y="100" as="sourcePoint" />
            <mxPoint x="760" y="90" as="targetPoint" />
            <mxPoint as="offset" />
          </mxGeometry>
        </mxCell>
        <mxCell id="EbIOYfQuQLUnMpSOqg3n-11" style="edgeStyle=orthogonalEdgeStyle;rounded=0;orthogonalLoop=1;jettySize=auto;html=1;exitX=0.5;exitY=0.5;exitDx=0;exitDy=0;exitPerimeter=0;entryX=1;entryY=0.154;entryDx=0;entryDy=0;entryPerimeter=0;" parent="1" source="EbIOYfQuQLUnMpSOqg3n-7" target="9bdjOai2HShZZKxOC8bh-6" edge="1">
          <mxGeometry relative="1" as="geometry">
            <mxPoint x="720" y="-130" as="targetPoint" />
            <Array as="points">
              <mxPoint x="861" y="-130" />
              <mxPoint x="861" y="-90" />
            </Array>
          </mxGeometry>
        </mxCell>
        <mxCell id="EbIOYfQuQLUnMpSOqg3n-7" value="Actor" style="shape=umlActor;verticalLabelPosition=bottom;verticalAlign=top;html=1;" parent="1" vertex="1">
          <mxGeometry x="1120" y="-160" width="30" height="60" as="geometry" />
        </mxCell>
        <mxCell id="EbIOYfQuQLUnMpSOqg3n-12" style="edgeStyle=orthogonalEdgeStyle;rounded=0;orthogonalLoop=1;jettySize=auto;html=1;exitX=0.5;exitY=0.5;exitDx=0;exitDy=0;exitPerimeter=0;entryX=0.938;entryY=0;entryDx=0;entryDy=0;entryPerimeter=0;" parent="1" source="EbIOYfQuQLUnMpSOqg3n-7" target="EbIOYfQuQLUnMpSOqg3n-2" edge="1">
          <mxGeometry relative="1" as="geometry" />
        </mxCell>
        <mxCell id="EbIOYfQuQLUnMpSOqg3n-13" value="&lt;font style=&quot;font-size: 15px;&quot;&gt;CLIENTE&lt;/font&gt;" style="edgeLabel;html=1;align=center;verticalAlign=middle;resizable=0;points=[];" parent="EbIOYfQuQLUnMpSOqg3n-12" vertex="1" connectable="0">
          <mxGeometry x="-0.557" y="4" relative="1" as="geometry">
            <mxPoint x="41" y="-41" as="offset" />
          </mxGeometry>
        </mxCell>
        <mxCell id="EbIOYfQuQLUnMpSOqg3n-14" value="&lt;font style=&quot;font-size: 24px;&quot;&gt;*&lt;/font&gt;" style="text;html=1;align=center;verticalAlign=middle;resizable=0;points=[];autosize=1;strokeColor=none;fillColor=none;" parent="1" vertex="1">
          <mxGeometry x="140" y="100" width="30" height="40" as="geometry" />
        </mxCell>
        <mxCell id="9bdjOai2HShZZKxOC8bh-6" value="SolicitudCreditoPersonal" style="swimlane;fontStyle=1;align=center;verticalAlign=top;childLayout=stackLayout;horizontal=1;startSize=26;horizontalStack=0;resizeParent=1;resizeParentMax=0;resizeLast=0;collapsible=1;marginBottom=0;whiteSpace=wrap;html=1;" vertex="1" parent="1">
          <mxGeometry x="650" y="-110" width="160" height="130" as="geometry" />
        </mxCell>
        <mxCell id="9bdjOai2HShZZKxOC8bh-7" value="--" style="text;strokeColor=none;fillColor=none;align=left;verticalAlign=top;spacingLeft=4;spacingRight=4;overflow=hidden;rotatable=0;points=[[0,0.5],[1,0.5]];portConstraint=eastwest;whiteSpace=wrap;html=1;" vertex="1" parent="9bdjOai2HShZZKxOC8bh-6">
          <mxGeometry y="26" width="160" height="26" as="geometry" />
        </mxCell>
        <mxCell id="9bdjOai2HShZZKxOC8bh-8" value="" style="line;strokeWidth=1;fillColor=none;align=left;verticalAlign=middle;spacingTop=-1;spacingLeft=3;spacingRight=3;rotatable=0;labelPosition=right;points=[];portConstraint=eastwest;strokeColor=inherit;" vertex="1" parent="9bdjOai2HShZZKxOC8bh-6">
          <mxGeometry y="52" width="160" height="8" as="geometry" />
        </mxCell>
        <mxCell id="9bdjOai2HShZZKxOC8bh-9" value="&lt;div&gt;&amp;nbsp;+ new(clienteSolicitante, duracion) &lt;br&gt;&lt;/div&gt;&lt;div&gt;+ otorgarCredito(): double &lt;br&gt;&lt;/div&gt;&lt;div&gt;+ esAceptable(): boolean &lt;br&gt;&lt;/div&gt;" style="text;strokeColor=none;fillColor=none;align=left;verticalAlign=top;spacingLeft=4;spacingRight=4;overflow=hidden;rotatable=0;points=[[0,0.5],[1,0.5]];portConstraint=eastwest;whiteSpace=wrap;html=1;" vertex="1" parent="9bdjOai2HShZZKxOC8bh-6">
          <mxGeometry y="60" width="160" height="70" as="geometry" />
        </mxCell>
      </root>
    </mxGraphModel>
  </diagram>
</mxfile>
